<?xml version="1.0" encoding="UTF-8" standalone="no"?>
<svg width="122px" height="129px" viewBox="0 0 122 129" version="1.1" xmlns="http://www.w3.org/2000/svg" xmlns:xlink="http://www.w3.org/1999/xlink" xmlns:sketch="http://www.bohemiancoding.com/sketch/ns">
    <title>Untitled</title>
    <description>Created with Sketch (http://www.bohemiancoding.com/sketch)</description>
    <defs></defs>
    <g id="Page-1" stroke="none" stroke-width="1" fill="none" fill-rule="evenodd" sketch:type="MSPage">
        <g id="Oval-1-copy-+-Oval-1-+-Oval-1-copy" sketch:type="MSLayerGroup" transform="translate(1.000000, 0.000000)" fill="#FFFFFF">
            <path d="M60,128 C82.3987299,128 101.93081,115.72642 112.237707,97.5377942 C117.179019,88.8178377 120,78.7383567 120,68 C120,34.8629134 93.1370866,8 60,8 C26.8629134,8 0,34.8629134 0,68 C0,101.137087 26.8629134,128 60,128 Z" id="Oval-1-copy" stroke="#FFFFFF" fill-opacity="0" sketch:type="MSShapeGroup"></path>
            <path d="M60,98 C76.5685433,98 90,84.5685433 90,68 C90,51.4314567 76.5685433,38 60,38 C43.4314567,38 30,51.4314567 30,68 C30,84.5685433 43.4314567,98 60,98 Z" id="Oval-1" sketch:type="MSShapeGroup"></path>
            <path d="M60,16 C64.4182782,16 68,12.4182782 68,8 C68,3.58172178 64.4182782,0 60,0 C55.5817218,0 52,3.58172178 52,8 C52,12.4182782 55.5817218,16 60,16 Z" id="Oval-1-copy" sketch:type="MSShapeGroup"></path>
        </g>
    </g>
</svg>