<?xml version="1.0" encoding="UTF-8" standalone="no"?>
<svg width="408px" height="46px" viewBox="0 0 408 46" version="1.1" xmlns="http://www.w3.org/2000/svg" xmlns:xlink="http://www.w3.org/1999/xlink" xmlns:sketch="http://www.bohemiancoding.com/sketch/ns">
    <title>AntiMatter</title>
    <description>Created with Sketch (http://www.bohemiancoding.com/sketch)</description>
    <defs></defs>
    <g id="Page-1" stroke="none" stroke-width="1" fill="none" fill-rule="evenodd" sketch:type="MSPage">
        <g id="ANTI-+-MATTER" sketch:type="MSLayerGroup">
            <path d="M33.71875,46 L30.40625,35.125 L13.75,35.125 L10.4375,46 L0,46 L16.125,0.125 L27.96875,0.125 L44.15625,46 L33.71875,46 Z M28.09375,27 C25.0312347,17.1457841 23.3072936,11.5729231 22.921875,10.28125 C22.5364564,8.98957687 22.2604175,7.96875375 22.09375,7.21875 C21.4062466,9.88543 19.4375163,16.4791141 16.1875,27 L28.09375,27 Z M90.4375,46 L78.125,46 L58.25,11.4375 L57.96875,11.4375 C58.3645853,17.5416972 58.5625,21.8958203 58.5625,24.5 L58.5625,46 L49.90625,46 L49.90625,0.3125 L62.125,0.3125 L81.96875,34.53125 L82.1875,34.53125 C81.8749984,28.5937203 81.71875,24.3958456 81.71875,21.9375 L81.71875,0.3125 L90.4375,0.3125 L90.4375,46 Z M119.5625,46 L109.875,46 L109.875,8.375 L97.46875,8.375 L97.46875,0.3125 L131.96875,0.3125 L131.96875,8.375 L119.5625,8.375 L119.5625,46 Z M139,46 L139,0.3125 L148.6875,0.3125 L148.6875,46 L139,46 Z" id="ANTI" sketch:type="MSShapeGroup"></path>
            <path d="M179.09375,46 L168.09375,10.15625 L167.8125,10.15625 C168.208335,17.4479531 168.40625,22.3124878 168.40625,24.75 L168.40625,46 L159.75,46 L159.75,0.3125 L172.9375,0.3125 L183.75,35.25 L183.9375,35.25 L195.40625,0.3125 L208.59375,0.3125 L208.59375,46 L199.5625,46 L199.5625,24.375 C199.5625,23.3541616 199.578125,22.17709 199.609375,20.84375 C199.640625,19.51041 199.781249,15.9687788 200.03125,10.21875 L199.75,10.21875 L187.96875,46 L179.09375,46 Z M248.0625,46 L244.75,35.125 L228.09375,35.125 L224.78125,46 L214.34375,46 L230.46875,0.125 L242.3125,0.125 L258.5,46 L248.0625,46 Z M242.4375,27 C239.374985,17.1457841 237.651044,11.5729231 237.265625,10.28125 C236.880206,8.98957687 236.604168,7.96875375 236.4375,7.21875 C235.749997,9.88543 233.781266,16.4791141 230.53125,27 L242.4375,27 Z M277.40625,46 L267.71875,46 L267.71875,8.375 L255.3125,8.375 L255.3125,0.3125 L289.8125,0.3125 L289.8125,8.375 L277.40625,8.375 L277.40625,46 Z M315.75,46 L306.0625,46 L306.0625,8.375 L293.65625,8.375 L293.65625,0.3125 L328.15625,0.3125 L328.15625,8.375 L315.75,8.375 L315.75,46 Z M361.5,46 L335.1875,46 L335.1875,0.3125 L361.5,0.3125 L361.5,8.25 L344.875,8.25 L344.875,18.28125 L360.34375,18.28125 L360.34375,26.21875 L344.875,26.21875 L344.875,38 L361.5,38 L361.5,46 Z M380.71875,28.46875 L380.71875,46 L371.03125,46 L371.03125,0.3125 L384.34375,0.3125 C390.552114,0.3125 395.145818,1.44269703 398.125,3.703125 C401.104182,5.96355297 402.59375,9.39581031 402.59375,14 C402.59375,16.6875134 401.854174,19.0781145 400.375,21.171875 C398.895826,23.2656355 396.802097,24.9062441 394.09375,26.09375 C400.968784,36.3646347 405.447906,42.999985 407.53125,46 L396.78125,46 L385.875,28.46875 L380.71875,28.46875 Z M380.71875,20.59375 L383.84375,20.59375 C386.906265,20.59375 389.166659,20.0833384 390.625,19.0625 C392.083341,18.0416616 392.8125,16.4375109 392.8125,14.25 C392.8125,12.0833225 392.067716,10.5416713 390.578125,9.625 C389.088534,8.70832875 386.781266,8.25 383.65625,8.25 L380.71875,8.25 L380.71875,20.59375 Z" id="MATTER" fill="#14081B" sketch:type="MSShapeGroup"></path>
        </g>
    </g>
</svg>