<?xml version="1.0" encoding="UTF-8" standalone="no"?>
<svg width="213px" height="456px" viewBox="0 0 213 456" version="1.1" xmlns="http://www.w3.org/2000/svg" xmlns:xlink="http://www.w3.org/1999/xlink" xmlns:sketch="http://www.bohemiancoding.com/sketch/ns">
    <title>phone_placeholder</title>
    <description>Created with Sketch (http://www.bohemiancoding.com/sketch)</description>
    <defs></defs>
    <g id="Page-1" stroke="none" stroke-width="1" fill="none" fill-rule="evenodd" sketch:type="MSPage">
        <g id="phone" sketch:type="MSLayerGroup" transform="translate(1.000000, 0.000000)" fill="#FFFFFF">
            <path d="M29.5977488,0.417 C13.069111,0.417 -0.382,13.868111 -0.382,30.3967489 L-0.382,425.020251 C-0.382,441.553435 13.069111,455.004546 29.5977488,455.004546 L181.94215,455.004546 C198.470788,455.004546 211.921898,441.553435 211.921898,425.020251 L211.921898,30.3967489 C211.917353,13.868111 198.466242,0.417 181.94215,0.417 L29.5977488,0.417 Z M105.772222,21.4505554 C108.176966,21.4505554 110.136219,23.2143374 110.136219,25.3872442 C110.136219,27.5601509 108.176966,29.3284788 105.772222,29.3284788 C103.362932,29.3284788 101.408225,27.5601509 101.408225,25.3872442 C101.408225,23.2143374 103.358386,21.4505554 105.772222,21.4505554 L105.772222,21.4505554 Z M88.075306,42.9477855 L123.464593,42.9477855 C125.314745,42.9477855 126.819415,44.457001 126.819415,46.3071538 C126.819415,48.1618525 125.314745,49.671068 123.464593,49.671068 L88.075306,49.671068 C86.2206073,49.671068 84.7159376,48.1618525 84.7159376,46.3071538 C84.7159376,44.457001 86.2206073,42.9477855 88.075306,42.9477855 L88.075306,42.9477855 Z M105.772222,442.821721 C94.9940592,442.821721 86.256974,434.084636 86.256974,423.311019 C86.256974,412.537402 94.9940592,403.795771 105.772222,403.795771 C116.545839,403.795771 125.282925,412.537402 125.282925,423.311019 C125.282925,434.084636 116.545839,442.821721 105.772222,442.821721 L105.772222,442.821721 Z M205.618,387.471695 L5.618,387.471695 L5.618,71.0001024 L205.618,71.0001024 L205.618,387.471695 L205.618,387.471695 Z" id="Shape" sketch:type="MSShapeGroup"></path>
        </g>
        <text id="go-to" sketch:type="MSTextLayer" font-family="Open Sans" font-size="36" font-weight="260" sketch:alignment="middle" fill="#000000">
            <tspan x="66.5" y="128.656738">go to</tspan>
        </text>
        <text id="bit.ly/" sketch:type="MSTextLayer" font-family="Open Sans" font-size="32" font-weight="bold" sketch:alignment="middle" fill="#00B2FF">
            <tspan x="60.390625" y="196.656738">bit.ly/</tspan>
            <tspan x="31.5078125" y="239.656738">1paFMNC</tspan>
        </text>
        <text id="to-join" sketch:type="MSTextLayer" font-family="Open Sans" font-size="36" font-weight="260" sketch:alignment="middle" fill="#000000">
            <tspan x="56.9453125" y="299">to join</tspan>
            <tspan x="31.5800781" y="348">the game</tspan>
        </text>
    </g>
</svg>